<!--?xml version="1.0" standalone="no"?-->              <svg id="sw-js-blob-svg" viewBox="0 0 100 100" xmlns="http://www.w3.org/2000/svg">                    <defs>                         <linearGradient id="sw-gradient" x1="0" x2="1" y1="1" y2="0">                            <stop id="stop1" stop-color="rgba(248, 117, 55, 1)" offset="0%"></stop>                            <stop id="stop2" stop-color="rgba(251, 168, 31, 1)" offset="100%"></stop>                        </linearGradient>                    </defs>                <path fill="url(#sw-gradient)" d="M21.8,-25.7C30,-19.1,39.6,-13.9,42,-6.5C44.4,1,39.8,10.6,34.4,19.9C29.1,29.1,23.1,38,14.6,41.9C6.1,45.8,-4.9,44.7,-12.1,39.5C-19.4,34.2,-22.9,24.7,-27.7,16.1C-32.5,7.5,-38.7,-0.2,-39,-8.4C-39.4,-16.6,-33.9,-25.2,-26.4,-31.9C-18.9,-38.7,-9.5,-43.5,-1.3,-41.9C6.8,-40.4,13.6,-32.4,21.8,-25.7Z" width="100%" height="100%" transform="translate(50 50)" stroke-width="0" style="transition: all 0.3s ease 0s;"></path>              </svg>