<!--?xml version="1.0" standalone="no"?-->              <svg id="sw-js-blob-svg" viewBox="0 0 100 100" xmlns="http://www.w3.org/2000/svg">                    <defs>                         <linearGradient id="sw-gradient" x1="0" x2="1" y1="1" y2="0">                            <stop id="stop1" stop-color="rgba(29.736, 233.442, 226.541, 1)" offset="0%"></stop>                            <stop id="stop2" stop-color="rgba(235.785, 31, 251, 1)" offset="100%"></stop>                        </linearGradient>                    </defs>                <path fill="url(#sw-gradient)" d="M27.3,-32.7C34.5,-26.6,38.7,-17.1,40.2,-7.3C41.6,2.5,40.3,12.5,34.9,18.4C29.4,24.3,19.7,26,10.7,29.3C1.6,32.6,-6.9,37.5,-14.1,36C-21.3,34.6,-27.2,26.8,-30.9,18.7C-34.7,10.5,-36.3,1.9,-34.6,-5.9C-33,-13.6,-28,-20.6,-21.7,-26.9C-15.4,-33.2,-7.7,-38.8,1.2,-40.2C10.1,-41.6,20.2,-38.8,27.3,-32.7Z" width="100%" height="100%" transform="translate(50 50)" stroke-width="0" style="transition: all 0.3s ease 0s;"></path>              </svg>